<svg width="48" height="48" viewBox="0 0 48 48" fill="none" xmlns="http://www.w3.org/2000/svg">
<rect width="48" height="48" rx="4" fill="white"/>
<rect x="0.5" y="0.5" width="47" height="47" rx="3.5" stroke="#D9D9D9"/>
<rect x="12" y="12" width="24" height="24" rx="12" fill="#1877F2"/>
<path d="M28.6711 27.4688L29.2031 24H25.875V21.75C25.875 20.8008 26.3391 19.875 27.8297 19.875H29.3438V16.9219C29.3438 16.9219 27.9703 16.6875 26.6578 16.6875C23.9156 16.6875 22.125 18.3492 22.125 21.3563V24H19.0781V27.4688H22.125V35.8547C22.7367 35.9508 23.3625 36 24 36C24.6375 36 25.2633 35.9508 25.875 35.8547V27.4688H28.6711Z" fill="#D9D9D9"/>
</svg>
