<svg width="48" height="48" viewBox="0 0 48 48" fill="none" xmlns="http://www.w3.org/2000/svg">
<rect width="48" height="48" rx="4" fill="white"/>
<rect x="0.5" y="0.5" width="47" height="47" rx="3.5" stroke="#D9D9D9"/>
<path d="M33.7732 30.7033C33.407 31.5418 32.9734 32.3136 32.4711 33.0232C31.7864 33.9906 31.2258 34.6602 30.7938 35.032C30.1241 35.6424 29.4065 35.955 28.6381 35.9728C28.0865 35.9728 27.4212 35.8172 26.6468 35.5017C25.8699 35.1876 25.1559 35.032 24.5031 35.032C23.8184 35.032 23.0841 35.1876 22.2986 35.5017C21.512 35.8172 20.8783 35.9816 20.3938 35.9979C19.6569 36.0291 18.9225 35.7076 18.1893 35.032C17.7214 34.6276 17.1362 33.9343 16.435 32.9521C15.6828 31.9033 15.0643 30.687 14.5798 29.3004C14.0609 27.8026 13.8008 26.3523 13.8008 24.9482C13.8008 23.3398 14.1515 21.9526 14.854 20.7901C15.4061 19.8564 16.1405 19.1198 17.0598 18.5791C17.979 18.0383 18.9722 17.7628 20.0419 17.7452C20.6271 17.7452 21.3946 17.9246 22.3484 18.2771C23.2995 18.6309 23.9102 18.8103 24.1779 18.8103C24.3781 18.8103 25.0565 18.6005 26.2066 18.1823C27.2941 17.7945 28.212 17.6339 28.964 17.6972C31.0016 17.8601 32.5324 18.6561 33.5505 20.0901C31.7281 21.1843 30.8267 22.7169 30.8446 24.6829C30.8611 26.2142 31.4217 27.4886 32.5235 28.5004C33.0228 28.97 33.5804 29.333 34.2008 29.5907C34.0662 29.9774 33.9242 30.3477 33.7732 30.7033ZM29.1 12.4801C29.1 13.6804 28.6575 14.8011 27.7755 15.8384C26.7111 17.0716 25.4237 17.7841 24.0275 17.6717C24.0098 17.5277 23.9994 17.3761 23.9994 17.2169C23.9994 16.0646 24.5056 14.8315 25.4045 13.8232C25.8533 13.3127 26.4241 12.8882 27.1162 12.5496C27.8069 12.2161 28.4602 12.0316 29.0746 12C29.0926 12.1605 29.1 12.3209 29.1 12.4801V12.4801Z" fill="black"/>
</svg>
