<svg width="48" height="48" viewBox="0 0 48 48" fill="none" xmlns="http://www.w3.org/2000/svg">
<rect x="0.5" y="0.5" width="47" height="47" rx="3.5" fill="white"/>
<rect x="0.5" y="0.5" width="47" height="47" rx="3.5" stroke="#D9D9D9"/>
<g clip-path="url(#clip0_1909_16175)">
<path fill-rule="evenodd" clip-rule="evenodd" d="M35.52 24.2729C35.52 23.422 35.4436 22.6038 35.3018 21.8184H24V26.4602H30.4582C30.18 27.9602 29.3345 29.2311 28.0636 30.082V33.0929H31.9418C34.2109 31.0038 35.52 27.9274 35.52 24.2729Z" fill="#4285F4"/>
<path fill-rule="evenodd" clip-rule="evenodd" d="M24.001 36.0003C27.241 36.0003 29.9573 34.9257 31.9428 33.093L28.0646 30.0821C26.9901 30.8021 25.6155 31.2275 24.001 31.2275C20.8755 31.2275 18.2301 29.1166 17.2864 26.2803H13.2773V29.3894C15.2519 33.3112 19.3101 36.0003 24.001 36.0003Z" fill="#34A853"/>
<path fill-rule="evenodd" clip-rule="evenodd" d="M17.2855 26.2804C17.0455 25.5604 16.9091 24.7913 16.9091 24.0004C16.9091 23.2095 17.0455 22.4404 17.2855 21.7204V18.6113H13.2764C12.4636 20.2313 12 22.0641 12 24.0004C12 25.9368 12.4636 27.7695 13.2764 29.3895L17.2855 26.2804Z" fill="#FBBC05"/>
<path fill-rule="evenodd" clip-rule="evenodd" d="M24.001 16.7727C25.7628 16.7727 27.3446 17.3782 28.5883 18.5673L32.0301 15.1255C29.9519 13.1891 27.2355 12 24.001 12C19.3101 12 15.2519 14.6891 13.2773 18.6109L17.2864 21.72C18.2301 18.8836 20.8755 16.7727 24.001 16.7727Z" fill="#EA4335"/>
</g>
<defs>
<clipPath id="clip0_1909_16175">
<rect width="24" height="24" fill="white" transform="translate(12 12)"/>
</clipPath>
</defs>
</svg>
