<svg width="94" height="48" viewBox="0 0 94 48" fill="none" xmlns="http://www.w3.org/2000/svg">
<rect x="0.5" y="0.5" width="93" height="47" rx="1.5" stroke="#A6A6A6"/>
<path d="M20.3397 20.6826L20.2999 20.9277C19.7749 23.7759 17.9932 24.7562 15.7103 24.7562H14.5489C14.4145 24.7565 14.2846 24.8078 14.1825 24.9007C14.0805 24.9936 14.013 25.1222 13.9921 25.2633L13.3956 29.2693L13.2285 30.4018C13.2215 30.4469 13.2239 30.4931 13.2356 30.5371C13.2472 30.5811 13.2678 30.6219 13.2958 30.6565C13.3239 30.6912 13.3588 30.7189 13.398 30.7377C13.4372 30.7564 13.4798 30.7659 13.5228 30.7653H15.583C15.7011 30.7669 15.8159 30.7234 15.9064 30.6428C15.9969 30.5621 16.0571 30.4496 16.0762 30.3258V30.2159L16.458 27.6044V27.4607C16.4753 27.3353 16.5348 27.2208 16.6255 27.1385C16.7162 27.0561 16.8319 27.0115 16.9511 27.0128H17.2614C19.2579 27.0128 20.817 26.1676 21.2385 23.6322C21.3611 23.2047 21.3875 22.7525 21.3156 22.3122C21.2438 21.8718 21.0757 21.4555 20.8249 21.0967C20.6849 20.9322 20.5211 20.7924 20.3397 20.6826Z" fill="#179BD7"/>
<path d="M19.7905 20.4544L19.5439 20.3868L19.2814 20.3361C18.9444 20.2822 18.604 20.2568 18.2633 20.26H15.1611C15.0431 20.2607 14.9293 20.3063 14.8403 20.3885C14.7513 20.4707 14.693 20.584 14.6758 20.708L14.0156 25.145V25.2718C14.0365 25.1307 14.104 25.0021 14.206 24.9092C14.3081 24.8162 14.438 24.765 14.5724 24.7647H15.7338C18.0167 24.7647 19.7984 23.7843 20.3234 20.9362C20.3234 20.8517 20.3234 20.7671 20.3632 20.6911C20.2254 20.6136 20.0817 20.5486 19.9337 20.4967L19.7905 20.4544Z" fill="#222D65"/>
<path d="M14.6674 20.6991C14.6845 20.5751 14.7428 20.4618 14.8318 20.3796C14.9209 20.2974 15.0346 20.2519 15.1526 20.2512H18.2548C18.5982 20.2474 18.9413 20.2729 19.2809 20.3273L19.5434 20.378L19.79 20.4456H19.9093C20.0573 20.4976 20.2009 20.5626 20.3388 20.64C20.4394 20.2212 20.4435 19.7829 20.3507 19.3621C20.258 18.9413 20.0711 18.5505 19.8059 18.2228C19.2172 17.5129 18.1514 17.2002 16.7912 17.2002H12.814C12.6796 17.2005 12.5496 17.2517 12.4476 17.3447C12.3455 17.4376 12.278 17.5662 12.2572 17.7073L10.6186 28.8548C10.6118 28.9059 10.6153 28.958 10.629 29.0075C10.6426 29.057 10.666 29.1029 10.6976 29.1421C10.7292 29.1812 10.7683 29.2128 10.8123 29.2347C10.8562 29.2566 10.9041 29.2682 10.9527 29.2689H13.3947L14.0071 25.1362L14.6674 20.6991Z" fill="#253B80"/>
<path d="M83.3327 25.333L77.9993 29.333L72.666 25.333" stroke="#565656" stroke-linecap="round" stroke-linejoin="round"/>
<path d="M72.666 19.333H83.3327" stroke="#565656" stroke-linecap="round"/>
<path d="M72.666 22H83.3327" stroke="#565656" stroke-linecap="round"/>
</svg>
